Coordinates
version=1
nRows=9
nColumns=36
inDegrees=yes

Units are S.I. units (second, meters, Newtons, ...)
If the header above contains a line with 'inDegrees', this indicates whether rotational values are in degrees (yes) or radians (no).

endheader
time	pelvis_tilt	pelvis_list	pelvis_rotation	pelvis_tx	pelvis_ty	pelvis_tz	hip_flexion_r	hip_adduction_r	hip_rotation_r	knee_angle_r	knee_angle_r_beta	ankle_angle_r	subtalar_angle_r	mtp_angle_r	hip_flexion_l	hip_adduction_l	hip_rotation_l	knee_angle_l	knee_angle_l_beta	ankle_angle_l	subtalar_angle_l	mtp_angle_l	lumbar_extension	lumbar_bending	lumbar_rotation	arm_flex_r	arm_add_r	arm_rot_r	elbow_flex_r	pro_sup_r	arm_flex_l	arm_add_l	arm_rot_l	elbow_flex_l	pro_sup_l
      0.00000000	      4.57210854	     -1.49593604	      1.35890340	     -0.89142747	      1.31910675	     -0.10580123	     -3.74386518	     -1.62064701	    -10.57830063	      7.68282527	      0.13409060	     -0.36829760	    -13.68075473	     -5.52163295	     -6.04143999	     -2.63701698	     -1.42222251	      4.82582754	      0.08422658	      4.64833140	      0.40990262	     -5.52163295	    -26.53560133	      0.36266242	      0.61063264	      8.89988452	     -8.46254028	     12.25020266	     23.99960429	     76.04531340	      3.40949408	     -8.85717666	     15.02685873	     20.44708684	     64.24524680
      0.00416670	      5.06463222	     -1.06344523	      2.22528538	     -0.89221994	      1.32381040	     -0.10612873	     -4.58951031	     -1.56002990	    -10.53503683	      7.76692168	      0.13555836	      1.26460523	    -11.53050635	     -5.75230881	     -6.22101375	     -1.82017981	      0.66946626	      5.02242683	      0.08765788	      5.07288908	      0.52435630	     -5.75230881	    -27.61928663	     -0.18841919	      0.22518658	      9.24855479	     -6.85462639	      7.34065499	     22.41596780	     74.76964627	      4.43656942	     -8.07860768	     10.86171934	     18.77428761	     63.68234524
      0.00833330	      5.16131927	     -0.69429180	      2.21561742	     -0.89230936	      1.32379265	     -0.10695498	     -4.80181163	     -1.76243305	    -10.99322339	      7.25187523	      0.12656910	      1.22180095	    -11.90778224	     -6.20338493	     -6.54014564	     -1.45019203	      1.05274585	      4.67987917	      0.08167930	      5.00630741	      0.17156794	     -6.20338493	    -28.11080471	     -0.85768029	      0.38661306	      8.77144561	     -5.80054338	      3.08161347	     22.77788567	     73.61210300	      4.84946575	     -8.12920623	      8.47190292	     18.79600521	     65.00840716
      0.01250000	      6.32694511	     -0.59739829	      2.40758318	     -0.89325976	      1.32756944	     -0.10677895	     -6.16612630	     -1.72923828	    -11.22461969	      6.76371257	      0.11804905	      1.06605126	    -11.74767586	     -6.72208139	     -8.16362881	     -1.35219544	      2.15598146	      3.92952745	      0.06858319	      4.54546468	     -1.19655172	     -6.72208139	    -29.73712167	     -0.99091907	      0.40518906	      8.81601943	     -5.63454149	      2.06636116	     22.91738081	     74.77925410	      5.33731723	     -8.51980750	      9.05025016	     18.82220087	     68.57081911
      0.01666670	      6.85644067	     -0.59162985	      2.62809473	     -0.89383055	      1.32919736	     -0.10655714	     -6.80461689	     -1.60573310	    -11.32832676	      6.55369046	      0.11438348	      0.79200152	    -11.90915892	     -6.77039924	     -8.90990553	     -1.37944054	      2.59989231	      3.49989246	      0.06108465	      4.44960746	     -1.62381635	     -6.77039924	    -30.64652590	     -0.83781095	      0.36040281	      8.89249480	     -5.66296591	      1.84347352	     23.01889005	     74.14163611	      5.62163541	     -8.52778015	      9.09442704	     18.94259977	     68.30927346
      0.02083330	      7.35089603	     -0.56785087	      2.84701579	     -0.89631766	      1.33036114	     -0.10505519	     -7.36574722	     -1.51225079	    -11.44384466	      6.43943068	      0.11238927	      0.64660777	    -12.10980740	     -6.78554650	     -9.38857302	     -1.45559467	      3.15977850	      3.35016644	      0.05847143	      4.32624554	     -2.20074455	     -6.78554650	    -31.45910940	     -0.72149241	      0.31350403	      9.11025864	     -5.69739243	      1.77433426	     23.00000696	     74.15842828	      6.01940317	     -8.54102758	      9.36802305	     19.08781704	     68.49128357
      0.02500000	      7.58423864	     -0.58057935	      3.10097844	     -0.89692947	      1.33051346	     -0.10530917	     -7.69839281	     -1.41679819	    -11.46455690	      6.24634169	      0.10901923	      0.43842805	    -12.20447260	     -6.87159538	     -9.49524391	     -1.53461975	      3.82225162	      3.34355541	      0.05835605	      4.03969224	     -3.02829885	     -6.87159538	    -31.97376793	     -0.52436584	      0.19375674	      9.15999687	     -5.75676159	      1.63322894	     23.39068185	     73.16341617	      6.19839391	     -8.53184200	      9.69601598	     19.54613433	     68.06944145
      0.02916670	      7.79668177	     -0.53577568	      3.24095586	     -0.89519991	      1.33407724	     -0.10488295	     -8.13184548	     -1.34982847	    -11.46665493	      5.94802706	      0.10381266	      0.05477619	    -12.42040952	     -6.91835899	     -9.71955535	     -1.55943513	      4.11646859	      3.28697216	      0.05736849	      3.83343449	     -3.08493458	     -6.91835899	    -32.31876353	     -0.50437018	      0.18376014	      9.18441470	     -5.75145442	      1.60680958	     23.39341253	     72.72347618	      6.41510502	     -8.49778920	     10.04450172	     19.77684292	     67.97470739
      0.03333330	      7.86267253	     -0.57272251	      3.36882745	     -0.89629094	      1.33206025	     -0.10598155	     -8.24321550	     -1.25778146	    -11.27029393	      5.89606478	      0.10290574	     -0.13718613	    -12.73982399	     -7.30319161	     -9.74124865	     -1.59818064	      4.74691128	      3.36245312	      0.05868588	      3.55483448	     -4.07094114	     -7.30319161	    -32.41442624	     -0.36045327	      0.32232493	      9.02759781	     -5.73692355	     -0.16062743	     23.44574405	     79.93532767	      6.74020153	     -8.51974606	     10.89495012	     19.61511526	     74.07307993
